# xmcd
#
# Track frame offsets: 
#        150
#        12600
#        26530
#        44182
#        58580
#        72125
#        90585
#        104392
#        117060
#        130535
#        144770
#        158462
#        171190
#
# Disc length: 2450 seconds
#
# Revision: 1
# Processed by: cddbd v1.5.2PL0 Copyright (c) Steve Scherf et al.
# Submitted via: ExactAudioCopy v0.99pb5
#
DISCID=a309900d
DTITLE=Charlie Parker featuring Miles Davis - The Best Of The Dial Yea
DTITLE=rs
DYEAR=2000
DGENRE=Jazz
TTITLE0=Yardbird Suite
TTITLE1=A Night In Tunisia
TTITLE2=Embraceable You
TTITLE3=Bird Of Paradise
TTITLE4=Ornithology
TTITLE5=Out Of Nowhere
TTITLE6=Moose The Mooche
TTITLE7=Don't Blame Me
TTITLE8=Scrapple From The Apple
TTITLE9=My Old Flame
TTITLE10=Parker's Mood
TTITLE11=Dizzy Atmosphere
TTITLE12=All The Things You Are
EXTD=YEAR: 2000
EXTT0=
EXTT1=
EXTT2=
EXTT3=
EXTT4=
EXTT5=
EXTT6=
EXTT7=
EXTT8=
EXTT9=
EXTT10=
EXTT11=
EXTT12=
PLAYORDER=
